<?xml version="1.0" standalone="no"?>
<!DOCTYPE svg PUBLIC "-//W3C//DTD SVG 20010904//EN"
 "http://www.w3.org/TR/2001/REC-SVG-20010904/DTD/svg10.dtd">
<svg version="1.0" xmlns="http://www.w3.org/2000/svg"
 width="108.000000pt" height="78.000000pt" viewBox="0 0 108.000000 78.000000"
 preserveAspectRatio="xMidYMid meet">
<metadata>
Created by potrace 1.10, written by Peter Selinger 2001-2011
</metadata>
<g transform="translate(0.000000,78.000000) scale(0.100000,-0.100000)"
fill="#ffffff" stroke="none">
<path d="M500 766 c0 -16 -21 -26 -53 -26 -12 -1 -32 -9 -43 -18 -18 -15 -22
-31 -25 -103 l-4 -84 45 0 45 0 3 70 c2 40 8 73 15 77 17 11 421 10 449 -1 23
-8 23 -10 22 -161 -1 -118 -4 -154 -15 -161 -8 -5 -46 -9 -85 -8 -78 2 -94 -3
-94 -30 0 -37 20 -41 131 -28 160 20 149 4 149 221 0 178 -1 183 -23 204 -13
12 -31 22 -39 22 -27 0 -48 11 -48 26 0 12 -38 14 -215 14 -177 0 -215 -2
-215 -14z"/>
<path d="M225 675 c-48 -17 -115 -88 -115 -121 0 -22 5 -24 45 -25 25 -1 51
-2 57 -3 7 -1 15 13 18 29 4 25 12 32 43 39 26 7 39 16 43 32 15 59 -16 76
-91 49z"/>
<path d="M275 478 c-27 -3 -82 -7 -121 -7 -65 -1 -73 -3 -102 -32 l-32 -31 0
-119 0 -119 50 0 c45 0 50 2 56 27 4 14 2 40 -5 58 -17 49 -14 119 7 137 25
21 450 19 462 -3 5 -8 10 -76 11 -150 4 -181 12 -173 -157 -165 -143 7 -159 2
-152 -46 3 -23 5 -23 142 -26 86 -2 143 1 150 8 5 5 23 10 38 10 17 0 39 10
53 25 27 26 26 19 30 255 2 109 -9 135 -72 166 -31 16 -62 19 -173 19 -74 0
-157 -3 -185 -7z"/>
<path d="M922 243 c-12 -2 -34 -20 -48 -39 -23 -30 -32 -34 -70 -34 -42 0 -44
-1 -44 -29 0 -66 24 -75 116 -45 59 20 97 53 111 97 16 54 5 63 -65 50z"/>
</g>
</svg>
